<?xml version="1.0" standalone="no"?>
<!DOCTYPE svg PUBLIC "-//W3C//DTD SVG 20010904//EN"
 "http://www.w3.org/TR/2001/REC-SVG-20010904/DTD/svg10.dtd">
<svg version="1.0" xmlns="http://www.w3.org/2000/svg"
 width="590.000000pt" height="590.000000pt" viewBox="0 0 590.000000 590.000000"
 preserveAspectRatio="xMidYMid meet">
<metadata>
Created by potrace 1.11, written by Peter Selinger 2001-2013
</metadata>
<g transform="translate(0.000000,590.000000) scale(0.100000,-0.100000)"
fill="#000000" stroke="none">
<path d="M2615 5875 c-701 -85 -1317 -396 -1810 -914 -307 -322 -560 -765
-684 -1194 -232 -812 -108 -1688 340 -2394 127 -200 277 -381 459 -556 104
-99 307 -267 324 -267 3 0 7 538 8 1195 l3 1195 437 3 438 2 2 -1415 3 -1414
130 -32 130 -31 3 2523 c2 2149 4 2524 16 2524 8 0 42 -9 77 -19 74 -23 925
-268 982 -283 l37 -10 0 -2364 0 -2364 23 0 c12 0 63 11 112 23 l90 23 3 1722
2 1722 515 0 515 0 2 -1462 3 -1461 95 80 c52 44 145 131 205 194 472 489 749
1093 816 1776 15 148 6 541 -15 678 -32 211 -97 463 -166 645 -97 253 -298
604 -450 784 -10 12 -35 41 -55 66 -60 74 -254 267 -345 345 -427 360 -921
583 -1492 671 -142 22 -604 28 -753 9z"/>
</g>
</svg>
